# xmcd
#
# Track frame offsets: 
#        150
#        18997
#        33937
#        50332
#        67982
#        87200
#        103761
#        118535
#        138177
#        153851
#        178510
#
# Disc length: 2603 seconds
#
# Revision: 1
# Processed by: cddbd v1.5.2PL0 Copyright (c) Steve Scherf et al.
# Submitted via: ExactAudioCopyFreeDBPlugin 1.0
#
DISCID=7f0a290b
DTITLE=盧冠廷 - Beyond Imagination
DYEAR=2015
DGENRE=Pop
TTITLE0=快樂老實人
TTITLE1=陪著你走
TTITLE2=最愛是誰
TTITLE3=世事何曾是絕對
TTITLE4=一生所愛
TTITLE5=天鳥vs天籟
TTITLE6=憑著愛
TTITLE7=我會掛念你
TTITLE8=但願人長久
TTITLE9=人間天堂
TTITLE10=一生所愛
EXTD=
EXTT0=
EXTT1=
EXTT2=
EXTT3=
EXTT4=
EXTT5=
EXTT6=
EXTT7=
EXTT8=
EXTT9=
EXTT10=
PLAYORDER=
